<?xml version="1.0" encoding="utf-8"?>
<!-- Generator: Adobe Illustrator 15.0.0, SVG Export Plug-In  -->
<!DOCTYPE svg PUBLIC "-//W3C//DTD SVG 1.1//EN" "http://www.w3.org/Graphics/SVG/1.1/DTD/svg11.dtd" [
	<!ENTITY ns_flows "http://ns.adobe.com/Flows/1.0/">
]>
<svg version="1.1"
	 xmlns="http://www.w3.org/2000/svg" xmlns:xlink="http://www.w3.org/1999/xlink" xmlns:a="http://ns.adobe.com/AdobeSVGViewerExtensions/3.0/"
	 x="0px" y="0px" width="21px" height="21px" viewBox="0 0 21 21" overflow="visible" enable-background="new 0 0 21 21"
	 xml:space="preserve">
<defs>
</defs>
<path fill="#FFFFFF" d="M17.646,16.501L14,12.855c0.566-0.811,0.903-1.792,0.903-2.855c0-2.762-2.238-5-5-5c-2.761,0-5,2.238-5,5
	s2.239,5,5,5c1.064,0,2.045-0.337,2.856-0.903l3.646,3.646c0.343,0.343,0.898,0.344,1.241,0.001
	C17.99,17.399,17.99,16.845,17.646,16.501z M9.903,13.2c-1.767,0-3.199-1.433-3.199-3.2s1.433-3.2,3.199-3.2
	c1.77,0,3.199,1.433,3.199,3.2S11.673,13.2,9.903,13.2z"/>
<rect opacity="0" fill="#4387FD" width="21" height="21"/>
</svg>
