<?xml version="1.0" encoding="UTF-8" standalone="no"?>
<!-- Created with Inkscape (http://www.inkscape.org/) -->

<svg
   xmlns:dc="http://purl.org/dc/elements/1.1/"
   xmlns:cc="http://creativecommons.org/ns#"
   xmlns:rdf="http://www.w3.org/1999/02/22-rdf-syntax-ns#"
   xmlns:svg="http://www.w3.org/2000/svg"
   xmlns="http://www.w3.org/2000/svg"
   xmlns:sodipodi="http://sodipodi.sourceforge.net/DTD/sodipodi-0.dtd"
   xmlns:inkscape="http://www.inkscape.org/namespaces/inkscape"
   width="500"
   height="500"
   id="svg2"
   version="1.1"
   inkscape:version="0.47 r22583"
   sodipodi:docname="simian.svg"
   inkscape:export-filename="~/Desktop/simian.png"
   inkscape:export-xdpi="90"
   inkscape:export-ydpi="90">
  <sodipodi:namedview
     id="base"
     pagecolor="#ffffff"
     bordercolor="#666666"
     borderopacity="1.0"
     inkscape:pageopacity="0.0"
     inkscape:pageshadow="2"
     inkscape:zoom="0.93"
     inkscape:cx="241.62115"
     inkscape:cy="262.88079"
     inkscape:document-units="px"
     inkscape:current-layer="g3644"
     showgrid="false"
     inkscape:window-width="1582"
     inkscape:window-height="994"
     inkscape:window-x="219"
     inkscape:window-y="105"
     inkscape:window-maximized="0" />
  <defs
     id="defs4">
    <inkscape:path-effect
       effect="envelope"
       id="path-effect4160"
       is_visible="true"
       yy="true"
       xx="true"
       bendpath1="m -646.04379,-246.00636 c 282.34659,12.71347 602.245324,33.89777 890.00731,21.59092"
       bendpath2="M 154.19078,-221.00635 C 143.07523,-101.13833 111.95431,95.863559 11.724988,160.18863 108.1372,232.00976 119.77178,351.27414 121.23624,457.61236"
       bendpath3="m -575.58925,459.88509 c 71.9338,37.94229 247.40161,-27.71402 358.5416,-24.58071 111.82988,10.51897 256.847139,45.66269 374.64753,39.35343"
       bendpath4="m -623.31652,-217.59726 c 27.34217,143.991011 66.61711,281.378252 171.07772,377.82527 l -184.71408,253.06616"
       bendpath1-nodetypes="cc"
       bendpath2-nodetypes="ccc"
       bendpath4-nodetypes="ccc"
       bendpath3-nodetypes="ccc" />
    <inkscape:path-effect
       effect="envelope"
       id="path-effect4158"
       is_visible="true"
       yy="true"
       xx="true"
       bendpath1="m -782.40743,-355.09726 1133.18912,84.09091"
       bendpath2="m 0.78169345,-133.50635 0,458.16416"
       bendpath3="m -457.40743,324.65781 458.18912345,0"
       bendpath4="m -457.40743,-133.50635 0,458.16416"
       bendpath1-nodetypes="cc" />
    <inkscape:path-effect
       fuse_tolerance="0"
       vertical_pattern="false"
       prop_units="false"
       tang_offset="0"
       normal_offset="0"
       spacing="0"
       scale_y_rel="false"
       prop_scale="1"
       copytype="single_stretched"
       pattern="M 0,0 0,10 10,5 z"
       is_visible="true"
       id="path-effect3703"
       effect="skeletal" />
    <inkscape:path-effect
       is_visible="true"
       id="path-effect3701"
       effect="spiro" />
    <inkscape:path-effect
       fuse_tolerance="0"
       vertical_pattern="false"
       prop_units="false"
       tang_offset="0"
       normal_offset="0"
       spacing="0"
       scale_y_rel="false"
       prop_scale="1"
       copytype="single_stretched"
       pattern="M 0,0 0,10 10,5 z"
       is_visible="true"
       id="path-effect3697"
       effect="skeletal" />
    <inkscape:path-effect
       is_visible="true"
       id="path-effect3695"
       effect="spiro" />
    <inkscape:path-effect
       fuse_tolerance="0"
       vertical_pattern="false"
       prop_units="false"
       tang_offset="0"
       normal_offset="0"
       spacing="0"
       scale_y_rel="false"
       prop_scale="1"
       copytype="single_stretched"
       pattern="M 0,0 0,10 10,5 z"
       is_visible="true"
       id="path-effect3691"
       effect="skeletal" />
    <inkscape:path-effect
       is_visible="true"
       id="path-effect3689"
       effect="spiro" />
    <inkscape:path-effect
       fuse_tolerance="0"
       vertical_pattern="false"
       prop_units="false"
       tang_offset="0"
       normal_offset="0"
       spacing="0"
       scale_y_rel="false"
       prop_scale="1"
       copytype="single_stretched"
       pattern="M 0,0 0,10 10,5 z"
       is_visible="true"
       id="path-effect3685"
       effect="skeletal" />
    <inkscape:path-effect
       is_visible="true"
       id="path-effect3683"
       effect="spiro" />
    <inkscape:path-effect
       fuse_tolerance="0"
       vertical_pattern="false"
       prop_units="false"
       tang_offset="0"
       normal_offset="0"
       spacing="0"
       scale_y_rel="false"
       prop_scale="1"
       copytype="single_stretched"
       pattern="M 0,0 0,10 10,5 z"
       is_visible="true"
       id="path-effect3679"
       effect="skeletal" />
    <inkscape:path-effect
       is_visible="true"
       id="path-effect3677"
       effect="spiro" />
    <inkscape:path-effect
       fuse_tolerance="0"
       vertical_pattern="false"
       prop_units="false"
       tang_offset="0"
       normal_offset="0"
       spacing="0"
       scale_y_rel="false"
       prop_scale="1"
       copytype="single_stretched"
       pattern="M 0,0 0,10 10,5 z"
       is_visible="true"
       id="path-effect3673"
       effect="skeletal" />
    <inkscape:path-effect
       is_visible="true"
       id="path-effect3671"
       effect="spiro" />
    <inkscape:path-effect
       fuse_tolerance="0"
       vertical_pattern="false"
       prop_units="false"
       tang_offset="0"
       normal_offset="0"
       spacing="0"
       scale_y_rel="false"
       prop_scale="1"
       copytype="single_stretched"
       pattern="M 0,0 0,10 10,5 z"
       is_visible="true"
       id="path-effect3667"
       effect="skeletal" />
    <inkscape:path-effect
       is_visible="true"
       id="path-effect3665"
       effect="spiro" />
    <inkscape:path-effect
       fuse_tolerance="0"
       vertical_pattern="false"
       prop_units="false"
       tang_offset="0"
       normal_offset="0"
       spacing="0"
       scale_y_rel="false"
       prop_scale="1"
       copytype="single_stretched"
       pattern="M 0,0 0,10 10,5 z"
       is_visible="true"
       id="path-effect3661"
       effect="skeletal" />
    <inkscape:path-effect
       is_visible="true"
       id="path-effect3659"
       effect="spiro" />
    <inkscape:perspective
       id="perspective10"
       inkscape:persp3d-origin="372.04724 : 350.78739 : 1"
       inkscape:vp_z="744.09448 : 526.18109 : 1"
       inkscape:vp_y="0 : 1000 : 0"
       inkscape:vp_x="0 : 526.18109 : 1"
       sodipodi:type="inkscape:persp3d" />
    <inkscape:perspective
       sodipodi:type="inkscape:persp3d"
       inkscape:vp_x="0 : 0.5 : 1"
       inkscape:vp_y="0 : 1000 : 0"
       inkscape:vp_z="1 : 0.5 : 1"
       inkscape:persp3d-origin="0.5 : 0.33333333 : 1"
       id="perspective2824" />
    <inkscape:perspective
       sodipodi:type="inkscape:persp3d"
       inkscape:vp_x="0 : 0.5 : 1"
       inkscape:vp_y="0 : 1000 : 0"
       inkscape:vp_z="1 : 0.5 : 1"
       inkscape:persp3d-origin="0.5 : 0.33333333 : 1"
       id="perspective3723" />
    <inkscape:perspective
       id="perspective4170"
       inkscape:persp3d-origin="0.5 : 0.33333333 : 1"
       inkscape:vp_z="1 : 0.5 : 1"
       inkscape:vp_y="0 : 1000 : 0"
       inkscape:vp_x="0 : 0.5 : 1"
       sodipodi:type="inkscape:persp3d" />
    <inkscape:path-effect
       effect="envelope"
       id="path-effect4160-3"
       is_visible="true"
       yy="true"
       xx="true"
       bendpath1="m -646.04379,-246.00636 c 282.34659,12.71347 602.245324,33.89777 890.00731,21.59092"
       bendpath2="M 154.19078,-221.00635 C 143.07523,-101.13833 86.95431,75.409014 -13.275011,139.73408 83.1372,211.55521 91.36269,343.31959 92.82715,449.65781"
       bendpath3="m -575.58925,459.88509 c 71.9338,37.94229 247.40161,-27.71402 358.5416,-24.58071 111.82988,10.51897 231.84714,57.02633 349.64753,50.71707"
       bendpath4="m -623.31652,-217.59726 c 27.34217,143.991011 88.20802,267.741889 192.66863,364.18891 L -617.6347,434.88508"
       bendpath1-nodetypes="cc"
       bendpath2-nodetypes="ccc"
       bendpath4-nodetypes="ccc"
       bendpath3-nodetypes="ccc" />
  </defs>
  <metadata
     id="metadata7">
    <rdf:RDF>
      <cc:Work
         rdf:about="">
        <dc:format>image/svg+xml</dc:format>
        <dc:type
           rdf:resource="http://purl.org/dc/dcmitype/StillImage" />
        <dc:title></dc:title>
      </cc:Work>
    </rdf:RDF>
  </metadata>
  <g
     transform="translate(-87.687444,-140.55417)"
     style="display:inline"
     id="layer1"
     inkscape:groupmode="layer"
     inkscape:label="Layer 1" />
  <g
     transform="translate(-87.687444,-140.55417)"
     inkscape:label="Layer"
     id="layer2"
     inkscape:groupmode="layer">
    <g
       inkscape:export-ydpi="80.019997"
       inkscape:export-xdpi="80.019997"
       inkscape:export-filename="~/Desktop/simian.png"
       transform="matrix(4.2542021,0,0,4.2542021,-1303.0691,-1774.4323)"
       id="g3644">
      <rect
         style="fill:#b26431;fill-opacity:1;stroke:none"
         id="rect3628"
         width="117.53085"
         height="117.53085"
         x="326.9136"
         y="450.13998" />
      <path
         style="fill:#915228;fill-opacity:1;stroke:none"
         d="m 383.33467,432.71174 c -1.54575,6.84355 -2.82398,13.78253 -3.85648,20.73685 -2.65851,-6.85723 -5.08869,-13.80387 -6.72865,-20.97926 -0.66162,7.16696 -0.61396,14.37341 -0.38197,21.55957 -3.8908,-6.52569 -7.32262,-13.31117 -10.18111,-20.34753 0.54077,7.09542 1.97181,14.09197 3.3477,21.05152 -0.57733,-0.19834 -1.76537,-2.01491 -2.50744,-2.92081 -3.89324,-5.16051 -7.53222,-10.52595 -10.90384,-16.04454 1.84232,6.76259 4.37862,13.32274 6.9279,19.85079 0.62643,1.70085 -1.59102,-0.88327 -2.12661,-1.35343 -4.89737,-4.97373 -9.56647,-10.15893 -14.0495,-15.50766 3.07787,6.43221 6.65882,12.56361 10.28847,18.68797 1.07734,1.89025 -1.58529,-0.39779 -2.15618,-0.84482 -5.55978,-4.44736 -11.11857,-9.29768 -16.2713,-13.97933 4.13562,5.91385 8.607,11.58036 13.18158,17.16695 1.41578,1.94525 -1.55597,-0.003 -2.3072,-0.52162 -5.99245,-3.84347 -11.8919,-7.84599 -17.70586,-11.96613 5.00581,5.36258 10.34624,10.43502 15.65508,15.50175 1.56717,1.75339 -1.57904,0.15797 -2.3407,-0.27798 -6.25423,-3.17223 -12.4798,-6.39575 -18.63265,-9.75124 5.69264,4.67898 11.62633,9.04989 17.50303,13.45248 1.7181,1.56781 -1.57237,0.33067 -2.35732,-0.0272 -6.29431,-2.38984 -12.57168,-4.82414 -18.86997,-7.20352 6.23919,3.94522 12.91189,7.22587 18.76694,11.74133 1.82223,1.51955 -1.52381,0.39427 -2.35345,0.0642 -6.05257,-2.23023 -12.33353,-3.72522 -18.64658,-4.95199 6.76382,2.52612 13.02548,6.11448 19.34852,9.54938 2.0982,1.26791 -0.56042,0.91275 -1.64017,0.5896 -6.15434,-1.30391 -12.36492,-2.39948 -18.66329,-2.56559 6.89594,1.89079 13.67851,4.32857 20.18043,7.29059 1.74676,0.92051 -1.50353,0.57931 -2.27901,0.49583 -5.56387,-0.40834 -11.2278,-0.51643 -16.69673,0.68315 6.59651,0.39584 11.26407,1.07109 17.52836,3.10337 2.01302,0.61827 0.79654,1.55291 0.0719,1.59052 -5.10113,0.33891 -10.27579,1.27799 -14.85296,3.65815 4.32936,-0.69347 8.86278,-0.83634 13.19284,-0.0367 1.99073,0.58708 1.51589,1.87085 3.45781,2.61305 -5.42978,0.79173 -8.54165,1.81382 -12.68573,5.59864 2.73026,-0.91395 6.04975,-1.17941 9.05009,-0.72169 2.63512,0.33782 3.34267,1.82443 5.90345,2.53017 -4.30898,1.42337 -6.71313,2.72368 -9.72167,6.14767 4.47949,-1.57925 7.98771,0.0751 12.5551,0.79435 -3.05912,1.8629 -4.8407,3.37887 -6.65652,6.38272 3.52293,-0.88439 7.21047,-0.51203 10.81284,-0.47012 -1.61794,1.6688 -2.96449,3.61956 -5.09056,4.70123 -1.77999,1.2032 -3.68982,2.51342 -5.47253,3.51124 3.62919,-0.201 7.21448,-0.67027 10.80549,-1.18266 -4.89521,3.59915 -9.73052,7.47041 -15.34512,9.85056 4.57506,0.0781 8.91554,-1.51051 13.32506,-2.45346 -4.34327,4.0198 -9.16138,7.60028 -14.39018,10.32803 -0.81492,0.30048 -3.04025,0.79662 -1.04335,0.61606 3.42257,0.12738 6.62565,-0.95526 9.75454,-2.19213 1.48229,-0.54 2.90169,-1.33067 4.48165,-1.58992 -1.73583,2.12898 -3.9132,3.82438 -6.03311,5.5233 -3.66195,1.93376 -7.35555,3.78446 -11.11171,5.5246 5.4813,-1.12015 10.74292,-3.10488 16.07751,-4.68032 1.85665,-0.25879 -1.17179,1.63812 -1.81772,2.04742 -4.90979,3.26362 -9.79493,6.54555 -14.80337,9.65537 5.83117,-2.22504 11.45583,-5.02946 17.17047,-7.5196 2.18128,-0.67954 -0.51573,1.5421 -1.20759,2.00977 -5.01391,4.01538 -9.9264,8.1556 -14.92714,12.18705 6.01153,-3.31078 11.85278,-6.99025 17.83351,-10.36358 2.0651,-0.89337 -0.28613,1.5313 -0.93556,2.06223 -4.81383,4.71456 -9.50542,9.57686 -14.18005,14.46437 5.91939,-4.32766 11.76818,-8.87595 17.75229,-13.11876 1.89747,-1.0994 0.0223,1.36003 -0.56131,1.96346 -4.42456,5.40281 -8.6878,10.91689 -12.76888,16.56907 5.54738,-5.27173 11.06765,-10.6558 16.86235,-15.60561 1.70205,-1.26805 0.23382,1.26526 -0.25377,1.86184 -3.83677,5.86137 -7.39691,11.87173 -10.55574,18.12179 4.7764,-6.09114 9.75649,-12.03671 15.11225,-17.6093 1.63984,-1.5316 0.36202,1.19516 -0.0949,1.99418 -2.99826,6.02708 -5.65785,12.26537 -7.67902,18.715 3.86355,-6.62496 8.08736,-13.09081 12.91068,-19.04584 1.31189,-1.46243 0.19457,1.53646 -0.0484,2.24627 -2.13143,6.10947 -3.81004,12.37039 -4.6792,18.79025 2.78158,-6.89424 6.15503,-13.57133 10.25974,-19.77124 1.18221,-1.809 0.39007,1.43884 0.24176,2.16627 -1.2426,6.10107 -2.01691,12.31301 -1.81156,18.55256 1.7149,-6.9905 4.37381,-13.76379 7.73626,-20.12412 0.88428,-1.5841 0.37389,1.8502 0.40009,2.58889 -0.34497,5.9103 -0.24831,11.88434 0.75192,17.71887 0.90918,-6.95684 2.82202,-13.82184 5.47739,-20.31072 0.47521,-0.41865 0.41234,2.20221 0.56046,3.08165 0.4908,5.77035 1.33159,11.52266 2.82104,17.11889 0.33924,-6.92868 1.59676,-13.79941 3.37166,-20.49445 1.62888,6.3832 2.81318,12.91152 4.7912,19.20934 0.41143,1.71512 0.54253,1.54709 0.42002,-0.1619 0.0521,-6.12902 0.1838,-12.298 1.01529,-18.37192 0.40856,-0.35946 1.01253,2.21037 1.3322,3.04874 1.8822,5.82523 3.86111,11.59977 5.91327,17.35784 -0.55171,-6.68377 -1.14174,-13.39275 -1.18909,-20.09458 0.0776,-1.74043 1.26089,1.60432 1.57992,2.22361 2.54936,5.9332 5.10688,11.86448 7.54985,17.84159 -1.06041,-6.90177 -2.42379,-13.77865 -3.26883,-20.70012 -0.12052,-1.67353 1.35103,1.30878 1.65278,1.84376 3.20164,5.92346 6.23775,11.94527 9.17475,18.00426 -1.6795,-6.96417 -3.6764,-13.8681 -5.33849,-20.8237 -0.30511,-1.99626 1.52032,1.06996 1.95948,1.74697 3.64678,5.6567 7.16931,11.38647 10.5337,17.21827 -2.30541,-6.98641 -5.05117,-13.87127 -7.48784,-20.81146 -0.45398,-1.90722 1.58437,0.90567 2.09032,1.5479 4.16039,5.29282 8.16181,10.70946 12.06005,16.20042 -3.03726,-6.83962 -6.43919,-13.50468 -9.65212,-20.23518 -0.65357,-1.85368 1.70516,0.76881 2.25387,1.34492 4.54766,4.72685 8.95837,9.58774 13.34825,14.46081 -3.71179,-6.34262 -7.64576,-12.50697 -11.60378,-18.6859 -1.13735,-2.08916 1.56247,0.20666 2.22723,0.80689 4.87221,4.04484 9.66721,8.18127 14.51118,12.25957 -4.40412,-5.72846 -9.09281,-11.26188 -13.54284,-16.9405 -1.07591,-1.70725 1.92184,0.4239 2.61965,0.86209 4.90155,3.18598 9.84606,6.31108 14.87516,9.291 -4.97272,-4.75939 -10.08754,-9.38854 -14.93966,-14.25533 -1.33262,-1.53197 1.80266,0.094 2.53281,0.43076 4.92177,2.28111 9.90123,4.42572 15.03661,6.21445 -5.39326,-3.60517 -10.85539,-7.18417 -15.96311,-11.18479 -1.26733,-1.09411 1.82593,-0.0354 2.43095,0.10496 4.75925,1.37786 9.62149,2.43108 14.54586,2.94082 -3.60472,-1.5042 -7.32535,-2.86899 -10.68583,-4.83723 -2.06159,-1.78217 -4.11505,-3.58232 -5.88602,-5.66709 5.05482,1.56143 10.36151,3.57214 15.70506,2.24777 -4.40117,-0.81687 -8.23395,-3.41311 -11.74574,-6.05284 -1.36356,-1.04208 -2.65176,-2.18544 -3.96667,-3.29086 4.22191,0.84592 8.75123,1.62796 12.93574,0.34525 -5.05802,-0.88658 -9.24916,-4.09244 -13.18549,-7.19877 2.69158,0.063 5.50681,0.30437 8.08025,-0.56561 -1.86014,-0.75325 -3.60015,-1.92168 -5.07587,-3.24679 -0.69943,-1.04791 -1.67804,-1.84658 -2.58568,-2.70321 2.50357,-0.2491 5.30007,-0.82376 7.68358,-0.71254 -0.0308,-2.20792 -2.36005,-3.47042 -3.95932,-4.56901 -0.78707,-0.59065 -3.1128,-1.35496 -0.87413,-1.46179 3.42791,-0.77349 7.27473,-1.70379 10.65858,-0.58031 -2.42959,-3.35944 -6.5748,-4.80547 -10.39414,-5.96469 4.90059,-1.69918 10.29803,-3.46168 15.44796,-1.88049 -3.85624,-3.57273 -9.23906,-4.6709 -14.31672,-5.19339 2.39715,-1.14384 4.83224,-2.243 7.52197,-2.41673 3.40164,-0.51567 6.86782,-0.72916 10.30599,-0.47013 -5.0509,-2.17863 -10.62916,-2.40253 -16.07695,-2.70453 -1.65756,-0.15638 1.3771,-1.0713 1.99888,-1.29081 5.31979,-1.83803 10.75872,-3.41558 16.34054,-4.25385 -6.0055,-0.76897 -12.07685,-0.0336 -18.04046,0.53602 -2.00454,0.0975 1.04693,-1.28704 1.79171,-1.61994 5.49733,-2.61044 11.39787,-5.15433 16.95393,-7.09917 -6.58259,0.63747 -13.01062,2.34364 -19.44356,3.76672 -1.94901,0.20563 1.1821,-1.52732 1.87085,-1.94606 4.89494,-2.94978 9.78227,-5.91065 15.06869,-8.12305 2.27691,-0.94832 0.97392,-0.60128 -0.63258,-0.15446 -5.69345,1.49752 -11.38044,3.03116 -16.84501,5.24708 -2.10409,0.94454 -1.80085,-0.26676 -0.19662,-1.19175 4.9806,-3.86409 10.66973,-6.65956 15.92718,-10.11478 2.45451,-1.39847 -0.0126,-0.27 -1.26626,0.23549 -5.84529,2.35408 -11.66777,4.82001 -17.56802,6.98678 -2.12528,0.62827 0.22777,-1.27023 0.97978,-1.71428 5.39312,-3.88685 10.73179,-7.89783 15.97926,-11.99496 -6.61968,3.56357 -13.26851,7.12656 -20.06229,10.32985 -2.16527,0.79392 0.45319,-1.55278 1.12647,-2.06685 4.90979,-4.33303 9.74808,-8.77722 14.49168,-13.2801 -6.41744,4.25348 -12.88359,8.47832 -19.54161,12.34316 -2.13018,1.03746 0.27671,-1.55357 0.91148,-2.17648 4.36648,-4.75772 8.69779,-9.60483 12.88581,-14.51532 -6.12752,4.85384 -12.2616,9.74833 -18.69357,14.17273 -1.77843,0.98846 0.52915,-1.89309 1.00838,-2.57306 3.70513,-5.06422 7.25375,-10.19817 10.7876,-15.38269 -5.62159,5.37263 -11.22611,10.76969 -17.15728,15.76252 -1.68211,1.40892 0.12024,-1.62006 0.45735,-2.27606 2.95341,-5.48257 5.83805,-11.00323 8.61968,-16.58634 -5.08276,5.95784 -10.09003,12.01092 -15.6301,17.54927 -0.54213,-0.0302 0.6181,-2.52555 0.89171,-3.46767 1.98916,-5.48614 3.89158,-10.9747 5.69586,-16.52037 -4.30265,6.45464 -8.64457,12.90641 -13.36913,19.06939 1.0406,-6.9837 2.46775,-13.90956 3.58469,-20.88377 -3.35593,6.77953 -6.83435,13.50039 -10.41617,20.16389 -0.10289,-7.08322 -0.0288,-14.16891 0.12487,-21.25105 -2.40138,6.94979 -4.80987,13.85575 -7.24284,20.79562 -1.46686,-6.99178 -2.70536,-14.04323 -3.40105,-21.14821 -0.0465,0.20813 -0.093,0.41625 -0.13956,0.62438 l 1e-5,-3.7e-4 z"
         id="path4156"
         sodipodi:nodetypes="ccccccccccccccccccccccccccccccccccccccccccccccccccccccccccccccccccccccccccccccccccccccccccccccccccccccccccccccccccccccccccccccccccccccccccccccccccccccccccccccccccccccccccccccccc" />
      <path
         style="fill:#f9f9f9;stroke:none;opacity:0.83"
         d="m 384.26724,532.53459 c 7.97414,-3.8793 50,-17.67241 49.56897,-43.96551 -0.43104,-26.2931 -16.16379,-32.75862 -46.98276,-31.89656 -30.81896,0.86207 -49.13793,5.60346 -49.13793,30.81897 0,25.21552 35.99138,38.14656 46.55172,45.0431 z"
         id="path3607"
         sodipodi:nodetypes="csssc" />
      <path
         style="fill:#ececec;stroke:none;opacity:0.79"
         d="m 420.48193,517.02081 c 7.27425,12.26444 5.22088,34.53816 -3.21286,39.75904 -8.43373,5.22088 -22.89156,10e-6 -29.31726,-0.4016 -6.42571,-0.40161 -19.67872,5.22088 -27.71085,3.61445 -8.03212,-1.60642 -15.64612,-9.49561 -13.25301,-23.69477 2.42955,-14.4154 10.04016,-20.08033 24.49799,-35.74298 14.45784,-15.66265 41.84201,4.40419 48.99599,16.46586 z"
         id="path2831"
         sodipodi:nodetypes="cssssss" />
      <path
         sodipodi:nodetypes="cccccccccccsscssscsscccccccccscccssccc"
         id="path3605"
         transform="matrix(0.20899634,0,0,0.20899634,224.4778,392.33645)"
         d="m 673.15625,370.75 29.1875,24.78125 c -7.49046,-1.8963 -14.68035,-3.10469 -21.28125,-3.15625 L 642.28125,375.40625 671,392.75 c -5.69725,0.30901 -11.57491,0.76306 -17.46875,1.46875 l -42.09375,-13 30.78125,14.65625 c -4.26546,0.74801 -8.49121,1.65689 -12.625,2.71875 L 594.625,392.25 l 24.40625,9.5 c -14.63008,5.12981 -27.25654,12.90892 -34.9375,24.65625 -17.5304,26.81124 -9.70119,62.56478 13.58275,93.7434 17.50547,23.4409 57.57534,38.25641 96.761,34.1316 -52.59126,40.21683 -68.06215,102.09487 -60.84375,124.78125 7.2184,22.68643 4.12888,61.87535 85.59375,69.09375 81.46487,7.2184 132.00161,19.59214 166.03125,-14.4375 34.02964,-34.02964 37.12292,-121.69034 -6.1875,-181.5 48.66753,-6.96665 71.63434,-23.16616 82.97755,-46.8838 11.34321,-23.71759 23.78605,-59.70173 -5.6338,-85.08495 -5.67603,-4.89723 -11.83791,-8.87692 -18.40625,-12.0625 l 26.15625,-9.78125 -36.375,5.5625 c -2.49338,-0.87815 -5.02983,-1.69261 -7.625,-2.40625 l 26.4375,-11.6875 -39.59375,8.78125 c -6.78345,-1.17974 -13.85993,-1.92489 -21.1875,-2.4375 L 910.375,377.5 873.53125,395.59375 c -0.92094,-0.0303 -1.82195,-0.0693 -2.75,-0.0937 -7.61381,-0.2003 -14.3728,0.52448 -20.46875,1.875 L 870,374.5 832,403.75 c -0.0123,0.006 -0.0189,0.0254 -0.0312,0.0312 -17.19817,8.21238 -28.86397,19.53125 -43.6875,19.53125 -15.21315,0 -41.88167,-13.15257 -68.03125,-22.3125 l -47.09375,-30.25 -5e-5,5e-5 z"
         style="fill:#666666;stroke:none" />
      <path
         d="m 369.61208,487.92252 c 0,3.45178 -3.66663,6.25 -8.18966,6.25 -4.52302,0 -8.18965,-2.79822 -8.18965,-6.25 0,-3.45178 3.66663,-6.25 8.18965,-6.25 4.52303,0 8.18966,2.79822 8.18966,6.25 z"
         sodipodi:ry="6.25"
         sodipodi:rx="8.1896553"
         sodipodi:cy="487.92252"
         sodipodi:cx="361.42242"
         id="path3611"
         style="fill:#000000;fill-opacity:1;stroke:none"
         sodipodi:type="arc"
         transform="translate(2.3706897,-0.43103448)" />
      <path
         sodipodi:type="arc"
         style="fill:#000000;fill-opacity:1;stroke:none"
         id="path3609"
         sodipodi:cx="361.42242"
         sodipodi:cy="487.92252"
         sodipodi:rx="8.1896553"
         sodipodi:ry="6.25"
         d="m 369.61208,487.92252 c 0,3.45178 -3.66663,6.25 -8.18966,6.25 -4.52302,0 -8.18965,-2.79822 -8.18965,-6.25 0,-3.45178 3.66663,-6.25 8.18965,-6.25 4.52303,0 8.18966,2.79822 8.18966,6.25 z"
         transform="translate(47.844828,-0.43103448)" />
      <path
         sodipodi:nodetypes="csssc"
         id="path3616"
         d="m 368.84779,485.3636 c 0,1.25698 -1.81715,-0.569 -4.40967,-0.569 -2.59252,0 -4.26743,0.83024 -4.26743,-0.42674 0,-1.25698 2.10165,-1.56472 4.69417,-1.56472 2.59252,0 3.98293,1.30348 3.98293,2.56046 z"
         style="opacity:0.8;fill:#ffffff;fill-opacity:1;stroke:none" />
      <path
         style="opacity:0.8;fill:#ffffff;fill-opacity:1;stroke:none"
         d="m 415.07823,485.6481 c 0,1.25698 -1.81715,-0.569 -4.40967,-0.569 -2.59252,0 -4.26743,0.83024 -4.26743,-0.42674 0,-1.25698 2.10165,-1.56472 4.69417,-1.56472 2.59252,0 3.98293,1.30348 3.98293,2.56046 z"
         id="path3613"
         sodipodi:nodetypes="csssc" />
      <path
         style="fill:#000000;fill-opacity:1;stroke:none"
         d="m 414.367,531.30953 c -1.328,1.29742 -13.0048,-6.82788 -28.52063,-6.82788 -15.51582,0 -27.11843,6.841 -28.09388,5.26316 -1.11063,-1.7965 12.57806,-6.97013 28.09388,-6.97013 15.51583,0 29.79926,7.28568 28.52063,8.53485 z"
         id="path3618"
         sodipodi:nodetypes="cssss" />
      <path
         style="opacity:0.32635983;fill:#ffffff;fill-opacity:1;stroke:none"
         d="m 385.84375,524.46875 c -14.54608,0 -25.64598,6.01728 -27.78125,5.46875 -0.64503,0.47644 -0.83688,0.0952 -0.64218,0.41012 0.97545,1.57784 13.27874,-4.33355 28.79456,-4.33355 15.51583,0 26.2868,7.51692 27.6148,6.2195 0.27618,-0.26981 -0.0795,-0.34725 -1.11093,-1.04607 -3.93073,-1.2169 -14.09139,-6.71875 -26.875,-6.71875 z"
         id="path3621"
         sodipodi:nodetypes="ccssscc" />
      <path
         style="fill:#1a1a1a;stroke:none"
         d="m 380.93628,508.6724 c -1.81703,2.65567 8.78827,11.39213 8.78827,11.39213 0,0 9.90274,-8.0518 8.91265,-11.39336 -0.99009,-3.34155 -1.06052,-2.48367 -2.10394,-2.35146 -0.33525,5.72827 -6.43742,10.89831 -6.43742,10.89831 0,0 -6.43689,-6.04267 -7.55066,-10.89709 -0.94933,-0.0277 -1.6089,2.35147 -1.6089,2.35147 z"
         id="path3626"
         sodipodi:nodetypes="ccscccs" />
    </g>
  </g>
</svg>
